<?xml version="1.0" standalone="no"?>
<!DOCTYPE svg PUBLIC "-//W3C//DTD SVG 20010904//EN"
 "http://www.w3.org/TR/2001/REC-SVG-20010904/DTD/svg10.dtd">
<svg version="1.0" xmlns="http://www.w3.org/2000/svg"
 width="270.000000pt" height="299.000000pt" viewBox="0 0 270.000000 299.000000"
 preserveAspectRatio="xMidYMid meet">
<metadata>
Created by potrace 1.10, written by Peter Selinger 2001-2011
</metadata>
<g transform="translate(0.000000,299.000000) scale(0.100000,-0.100000)"
fill="#000000" stroke="none">
<path d="M1308 2795 c-3 -4 -13 -8 -22 -9 -29 -4 -75 -46 -103 -93 -15 -27
-28 -50 -29 -53 0 -3 -8 -22 -17 -42 -10 -21 -17 -42 -17 -48 0 -5 -4 -10 -10
-10 -5 0 -10 -11 -10 -25 0 -14 -4 -25 -8 -25 -5 0 -13 -15 -19 -32 -10 -30
-48 -119 -95 -224 -10 -22 -18 -47 -18 -55 -1 -17 -30 33 -47 80 -6 19 -9 39
-6 44 3 6 1 7 -5 3 -8 -4 -12 0 -12 12 0 10 -3 22 -7 26 -5 4 -8 11 -9 14 -1
11 -15 45 -25 64 -5 10 -9 25 -9 33 0 8 -5 15 -12 15 -6 0 -9 3 -5 6 3 3 -4
27 -15 52 -11 26 -31 79 -45 117 -14 39 -35 83 -47 98 -20 28 -25 29 -102 29
-122 0 -139 -16 -104 -97 7 -16 16 -39 20 -50 24 -61 64 -152 74 -164 9 -12 8
-13 -4 -6 -12 7 -12 4 1 -11 14 -16 25 -41 34 -74 3 -9 17 -45 35 -85 26 -60
33 -79 32 -87 -1 -5 3 -8 9 -8 5 0 8 -4 5 -9 -7 -11 88 -106 123 -124 15 -7
37 -13 49 -12 12 1 22 -1 22 -5 0 -16 115 2 159 25 37 18 98 81 107 107 3 10
10 18 15 18 5 0 8 3 7 8 -1 4 3 18 9 32 6 14 11 28 11 33 1 4 12 29 26 55 13
26 32 70 42 97 10 28 24 56 30 62 7 7 15 26 19 43 4 16 10 30 15 30 8 0 50
-91 50 -109 0 -6 4 -11 9 -11 8 0 19 -29 21 -52 0 -5 13 -34 29 -65 16 -32 35
-76 42 -98 16 -45 98 -134 148 -160 22 -11 59 -17 105 -18 61 -1 78 3 116 25
65 38 107 89 141 171 17 40 36 86 44 102 22 48 37 94 34 99 -2 2 3 12 12 22 9
11 20 28 24 39 10 23 8 18 23 70 7 22 23 59 37 83 13 23 19 39 12 35 -7 -4 -7
0 2 10 7 9 10 17 5 17 -4 0 -3 5 3 11 9 9 8 17 -3 34 -13 20 -21 22 -100 19
-98 -3 -128 -17 -137 -64 -4 -17 -11 -29 -15 -26 -5 3 -8 -5 -7 -17 2 -12 -8
-44 -20 -70 -13 -26 -23 -49 -23 -50 2 -3 -61 -169 -76 -202 -8 -16 -25 -61
-39 -100 l-25 -70 -37 80 c-21 44 -51 109 -68 145 -17 36 -32 67 -33 70 -2 10
-23 57 -60 134 -20 44 -37 86 -37 93 0 7 -3 11 -5 8 -3 -3 -16 10 -29 27 -12
18 -23 28 -23 23 0 -5 -7 1 -16 13 -8 12 -19 20 -24 17 -5 -3 -11 -2 -14 3 -6
10 -99 16 -108 7z m120 -39 c15 -8 35 -23 45 -34 10 -11 78 -151 151 -311 74
-161 135 -294 138 -296 2 -2 20 39 40 93 20 53 75 196 122 317 l85 220 94 3
95 3 -118 -285 c-65 -157 -128 -299 -140 -316 -12 -16 -42 -42 -68 -57 -39
-24 -58 -28 -117 -28 -79 1 -135 24 -177 73 -13 16 -69 131 -124 255 -87 201
-114 251 -114 218 0 -23 -185 -429 -209 -461 -82 -104 -235 -117 -335 -29 -36
32 -53 59 -91 151 -63 150 -195 471 -195 475 0 2 42 3 93 3 l92 0 47 -123
c177 -462 207 -532 216 -507 19 49 232 541 247 570 25 49 81 80 143 80 29 0
65 -6 80 -14z"/>
<path d="M59 2360 c-26 -15 -26 -177 0 -207 11 -13 22 -23 26 -23 9 0 128 -46
182 -71 24 -10 47 -19 52 -19 5 0 47 -16 93 -35 46 -20 91 -37 101 -38 9 -1
17 -4 17 -8 0 -6 81 -34 93 -31 4 1 7 -2 7 -8 0 -8 -180 -100 -196 -100 -3 0
-38 -15 -77 -34 -40 -18 -111 -52 -159 -74 -134 -63 -178 -112 -178 -199 0
-69 18 -110 67 -152 25 -23 50 -41 54 -41 5 0 32 -11 61 -24 29 -13 114 -49
188 -81 74 -31 144 -62 155 -68 11 -6 26 -12 33 -13 7 -1 25 -10 40 -20 19
-13 23 -19 12 -21 -8 -3 -24 -8 -35 -13 -36 -15 -220 -85 -225 -86 -3 0 -16
-5 -30 -11 -14 -6 -56 -23 -95 -38 -210 -80 -206 -77 -204 -197 1 -63 5 -81
21 -95 11 -10 21 -18 22 -17 9 6 83 42 89 43 4 0 24 8 45 17 20 9 42 17 47 18
6 1 33 13 60 26 105 48 219 91 232 86 8 -3 11 -1 8 4 -4 6 7 13 24 16 17 4 31
10 31 15 0 4 9 11 21 14 27 9 100 75 94 85 -2 4 3 16 13 26 23 25 27 46 26
129 0 55 -5 79 -25 112 -26 44 -102 113 -125 113 -8 0 -14 5 -14 10 0 6 -6 10
-14 10 -7 0 -39 11 -70 25 -31 14 -58 24 -61 22 -2 -1 -13 6 -24 15 -11 9 -21
15 -23 13 -2 -2 -39 14 -83 35 l-80 38 40 18 c22 10 45 19 50 20 9 1 101 42
211 94 23 11 48 20 56 20 8 0 24 9 36 20 12 12 22 18 22 15 0 -3 15 12 34 32
35 40 73 114 75 148 4 68 -3 103 -25 144 -49 87 -92 119 -234 171 -36 13 -68
27 -71 32 -5 7 -18 12 -65 22 -7 1 -18 7 -26 13 -7 6 -25 14 -41 18 -15 4 -27
11 -27 16 0 5 -3 8 -7 7 -10 -3 -78 20 -111 38 -15 8 -35 14 -44 14 -9 0 -20
5 -23 10 -8 12 -25 12 -46 0z m446 -191 c151 -62 178 -79 210 -129 64 -102 47
-235 -39 -307 -19 -15 -136 -73 -260 -127 -124 -55 -225 -100 -223 -101 1 -2
107 -49 235 -105 245 -108 276 -129 308 -206 21 -49 18 -147 -5 -192 -40 -77
-71 -95 -374 -221 l-287 -118 0 92 0 92 38 16 c20 9 102 42 182 72 80 31 201
78 270 106 69 27 131 49 138 49 21 0 13 18 -10 26 -52 16 -555 238 -582 257
-33 23 -66 89 -66 132 0 43 34 111 66 132 15 10 157 77 315 149 l288 130 -237
92 c-130 50 -274 105 -319 123 l-83 31 0 93 0 94 158 -65 c86 -36 211 -88 277
-115z"/>
<path d="M2490 2323 c-58 -24 -109 -45 -115 -47 -5 -1 -31 -13 -57 -25 -27
-13 -55 -21 -63 -17 -8 3 -14 0 -12 -6 1 -7 -2 -12 -8 -13 -17 -1 -149 -58
-166 -72 -9 -7 -18 -11 -21 -8 -3 4 -28 -16 -55 -42 -108 -105 -111 -254 -8
-359 43 -43 140 -104 167 -104 5 0 46 -18 93 -40 47 -22 90 -40 96 -40 6 0 17
-7 25 -15 9 -8 24 -15 34 -15 29 0 34 -19 8 -29 -13 -5 -44 -18 -71 -30 -26
-11 -50 -20 -52 -20 -3 0 -22 -9 -43 -20 -33 -18 -88 -43 -102 -45 -27 -5
-124 -63 -153 -92 -54 -54 -71 -98 -72 -179 0 -76 27 -151 65 -178 11 -8 17
-17 13 -20 -3 -4 -1 -7 6 -7 7 0 25 -8 39 -19 15 -10 38 -22 51 -26 14 -4 56
-22 95 -40 39 -19 97 -42 128 -53 32 -10 54 -23 50 -27 -4 -5 -2 -5 5 -2 6 4
24 1 40 -7 15 -8 44 -21 63 -29 19 -8 56 -24 81 -35 25 -12 52 -20 61 -18 24
3 49 27 41 39 -3 5 -6 50 -6 98 -1 48 -4 86 -8 83 -4 -2 -9 0 -11 5 -2 6 -188
80 -218 87 -7 1 -62 23 -85 34 -47 21 -203 80 -214 80 -6 0 -11 4 -11 10 0 5
-3 9 -7 9 -19 -3 -33 2 -33 11 0 6 4 10 10 10 10 0 118 48 225 100 33 16 94
44 135 61 41 17 93 40 115 51 94 46 145 135 126 217 -5 22 -7 41 -4 41 3 0
-22 27 -56 61 -34 33 -65 57 -70 54 -5 -3 -12 -1 -15 4 -3 4 -19 11 -36 15
-21 4 -29 10 -24 17 4 8 3 9 -4 5 -6 -4 -19 -2 -29 3 -10 6 -45 21 -78 35 -33
13 -90 38 -127 55 -36 17 -70 31 -75 31 -4 1 -30 11 -58 24 l-50 24 48 21 c27
12 52 21 56 21 4 0 26 9 49 20 22 11 45 20 51 20 5 0 36 11 68 24 32 13 85 34
118 46 33 12 71 28 85 35 14 7 37 15 51 18 14 4 37 16 52 27 24 19 26 25 25
113 -1 94 -8 118 -37 116 -9 -1 -63 -21 -121 -46z m127 -159 c-7 -7 -616 -244
-627 -244 -35 0 23 -29 283 -140 170 -73 305 -137 324 -153 59 -52 67 -144 19
-217 -21 -32 -50 -48 -243 -137 -120 -55 -257 -118 -306 -139 l-87 -39 57 -22
c262 -100 575 -222 579 -226 3 -2 3 -45 2 -94 l-3 -90 -100 42 c-55 23 -179
75 -275 115 -96 39 -191 82 -210 94 -54 35 -92 114 -92 190 0 39 6 75 17 97
37 74 69 94 309 200 127 56 232 102 233 104 2 1 -99 46 -223 101 -124 54 -240
111 -258 126 -48 39 -76 105 -76 178 0 107 53 177 173 229 40 17 169 70 287
119 l215 89 3 -90 c1 -49 1 -91 -1 -93z"/>
<path d="M1225 1971 c-131 -38 -256 -143 -312 -261 -53 -112 -54 -288 -1 -400
31 -65 56 -98 118 -157 47 -45 132 -99 143 -91 2 2 10 -2 18 -9 33 -27 255
-37 284 -13 7 6 17 10 21 8 14 -3 84 32 136 69 123 88 205 244 202 383 -2 101
-35 203 -88 277 -20 27 -34 53 -31 56 3 4 2 5 -2 2 -3 -3 -25 13 -48 34 -22
21 -72 52 -111 70 -38 18 -76 36 -84 40 -32 15 -185 10 -245 -8z m240 -25
c227 -60 371 -277 337 -507 -40 -267 -305 -442 -567 -374 -126 33 -240 129
-298 252 -30 65 -32 74 -32 188 0 114 2 123 32 188 36 76 116 166 181 204 100
59 239 78 347 49z"/>
<path d="M1253 1774 c-58 -21 -127 -85 -157 -146 -33 -66 -36 -164 -7 -231 78
-181 304 -232 449 -102 69 63 96 121 96 210 0 111 -58 206 -157 257 -55 28
-165 34 -224 12z m193 -27 c46 -17 92 -56 127 -106 28 -41 30 -51 30 -132 0
-76 -3 -92 -27 -133 -90 -154 -300 -173 -422 -39 -18 20 -33 39 -32 42 1 3 -5
20 -12 36 -17 39 -16 152 1 191 22 49 78 106 128 131 52 25 153 30 207 10z"/>
<path d="M860 960 c-81 -29 -124 -81 -190 -235 -30 -70 -55 -130 -55 -133 -1
-4 -11 -29 -23 -56 -12 -27 -22 -55 -22 -62 0 -8 -4 -14 -10 -14 -5 0 -10 -6
-10 -14 0 -7 -14 -48 -31 -91 -27 -67 -30 -80 -18 -101 12 -23 17 -24 101 -23
87 1 89 1 112 32 19 27 96 218 96 240 0 6 43 106 60 138 5 9 14 35 20 58 19
70 49 133 61 126 6 -4 8 -13 5 -21 -3 -8 -1 -14 3 -14 5 0 14 -15 20 -32 7
-18 11 -33 11 -33 -1 0 15 -31 34 -68 20 -38 36 -75 36 -83 0 -8 5 -14 10 -14
6 0 10 -6 10 -13 0 -7 11 -36 25 -64 13 -28 27 -63 31 -77 3 -14 9 -26 13 -26
4 0 13 -17 20 -37 24 -64 113 -133 173 -133 55 0 104 23 151 71 26 27 47 56
47 64 0 9 10 35 22 58 12 23 23 47 24 52 1 9 17 46 73 170 10 22 31 69 47 105
51 112 59 120 66 70 1 -14 5 -27 8 -30 6 -6 19 -37 126 -310 42 -107 83 -202
92 -210 19 -19 188 -16 207 4 13 13 3 50 -35 141 -8 17 -14 32 -15 35 -5 15
-20 51 -41 98 -12 28 -20 52 -16 52 4 0 2 4 -4 8 -6 4 -20 32 -32 62 -52 136
-80 192 -114 234 -95 113 -256 123 -366 22 -39 -37 -58 -68 -110 -186 -10 -25
-29 -67 -42 -95 -25 -56 -42 -99 -40 -103 2 -6 -35 -62 -42 -62 -4 0 -11 12
-14 27 -4 15 -16 42 -27 60 -10 18 -16 33 -11 33 4 0 1 8 -7 18 -8 9 -25 44
-38 77 -43 115 -80 182 -127 228 -26 26 -53 47 -60 47 -8 0 -14 5 -14 11 0 5
-4 8 -9 4 -5 -3 -12 -2 -14 2 -11 17 -113 12 -167 -7z m185 -29 c71 -33 98
-74 199 -301 53 -118 96 -220 96 -227 0 -37 24 7 114 214 55 124 111 240 125
256 36 42 115 77 177 77 63 0 144 -39 180 -85 14 -18 65 -129 113 -247 49
-117 102 -246 119 -286 l31 -73 -95 3 -96 3 -100 255 c-54 140 -111 286 -125
323 -14 37 -27 66 -28 65 -1 -2 -57 -131 -125 -288 -68 -157 -134 -300 -148
-319 -61 -82 -203 -80 -262 3 -15 22 -201 423 -247 534 -24 57 -43 79 -43 51
0 -12 -26 -82 -162 -434 l-74 -190 -92 -3 c-51 -1 -92 -1 -92 2 0 2 18 49 41
103 22 54 69 169 104 256 79 193 99 232 133 265 65 61 178 80 257 43z"/>
</g>
</svg>
